
EXCLUSIVE DHAMAKA FROM Henry


-----------------------------------------------------------------------------------
Format                           : Matroska
File size                        : 397 MiB
Duration                         : 2h 38mn
Overall bit rate                 : 351 Kbps
Movie name                       : Khelein Hum Jee Jaan Sey 2010 DvDScr x264 - Henry 
Encoded date                     : UTC 2010-12-08 16:25:46
Writing application              : mkvmerge v4.2.0 ('No Talking') built on Jul 28 2010 18:38:23
Writing library                  : libebml v1.0.0 + libmatroska v1.0.0
-----------------------------------------------------------------------------------
Video
ID                               : 1
Format                           : AVC
Format/Info                      : Advanced Video Codec
Format profile                   : High@L2.1
Format settings, CABAC           : Yes
Format settings, ReFrames        : 4 frames
Format settings, GOP             : N=1
Muxing mode                      : Container profile=Unknown@2.1
Codec ID                         : V_MPEG4/ISO/AVC
Duration                         : 2h 38mn
Bit rate                         : 274 Kbps
Width                            : 576 pixels
Height                           : 288 pixels
Display aspect ratio             : 2.000
Frame rate                       : 25.000 fps
Color space                      : YUV
Chroma subsampling               : 4:2:0
Bit depth                        : 8 bits
Scan type                        : Progressive
Bits/(Pixel*Frame)               : 0.066
Stream size                      : 304 MiB (77%)
Writing library                  : x264 
-----------------------------------------------------------------------------------
Audio
ID                               : 2
Format                           : MPEG Audio
Format version                   : Version 2
Format profile                   : Layer 3
Mode                             : Joint stereo
Mode extension                   : MS Stereo
Codec ID                         : A_MPEG/L3
Codec ID/Hint                    : MP3
Duration                         : 2h 38mn
Bit rate mode                    : Variable
Bit rate                         : 75.0 Kbps
Nominal bit rate                 : 128 Kbps
Channel(s)                       : 2 channels
Sampling rate                    : 24.0 KHz
Stream size                      : 84.8 MiB (21%)
Writing library                  : LAME3.98r
Encoding settings                : -m j -V 4 -q 2 -lowpass 12 --abr 128

Screens: 
http://leetleech.org/images/60424068330094445106.png 
http://leetleech.org/images/61204110895194124642.png 
http://leetleech.org/images/26427939815179548285.png 
http://leetleech.org/images/26283905658685714716.png 
http://leetleech.org/images/21403950635041860661.png 
http://leetleech.org/images/16883769105154683474.png 
http://leetleech.org/images/96630486352616063186.png 
http://leetleech.org/images/64456235371532086132.png

Sample Include In Torrent

keep Seeding
Thnx